<?xml version="1.0" encoding="UTF-8" standalone="no"?>
<svg
   xmlns:dc="http://purl.org/dc/elements/1.1/"
   xmlns:cc="http://creativecommons.org/ns#"
   xmlns:rdf="http://www.w3.org/1999/02/22-rdf-syntax-ns#"
   xmlns:svg="http://www.w3.org/2000/svg"
   xmlns="http://www.w3.org/2000/svg"
   viewBox="0 0 960 453.33334"
   height="453.33334"
   width="960"
   xml:space="preserve"
   id="svg2"
   version="1.1"><metadata
     id="metadata8"><rdf:RDF><cc:Work
         rdf:about=""><dc:format>image/svg+xml</dc:format><dc:type
           rdf:resource="http://purl.org/dc/dcmitype/StillImage" /></cc:Work></rdf:RDF></metadata><defs
     id="defs6"><clipPath
       id="clipPath18"
       clipPathUnits="userSpaceOnUse"><path
         id="path16"
         d="M 0,340 H 720 V 0 H 0 Z" /></clipPath><linearGradient
       id="linearGradient46"
       spreadMethod="pad"
       gradientTransform="matrix(-210.62813,28.478041,-28.478041,-210.62813,467.75568,202.76437)"
       gradientUnits="userSpaceOnUse"
       y2="0"
       x2="1"
       y1="0"
       x1="0"><stop
         id="stop36"
         offset="0"
         style="stop-opacity:1;stop-color:#101c50" /><stop
         id="stop38"
         offset="0.236"
         style="stop-opacity:1;stop-color:#0d267a" /><stop
         id="stop40"
         offset="0.4973"
         style="stop-opacity:1;stop-color:#085aa4" /><stop
         id="stop42"
         offset="0.6549"
         style="stop-opacity:1;stop-color:#058bbf" /><stop
         id="stop44"
         offset="1"
         style="stop-opacity:1;stop-color:#b1ffff" /></linearGradient></defs><g
     transform="matrix(1.3333333,0,0,-1.3333333,0,453.33333)"
     id="g10"><g
       id="g12"><g
         clip-path="url(#clipPath18)"
         id="g14"><g
           transform="translate(486.0937,150.4852)"
           id="g20"><path
             id="path22"
             style="fill:#101c50;fill-opacity:1;fill-rule:nonzero;stroke:none"
             d="m 0,0 h -17.438 c -0.348,5.927 -1.063,11.7 -2.188,17.646 -0.115,0.616 -0.651,1.062 -1.274,1.062 h -4.02 c -0.35,0 -0.681,-0.157 -0.908,-0.432 -0.228,-0.279 -0.317,-0.633 -0.25,-0.98 1.143,-5.754 1.866,-11.417 2.223,-17.302 h -16.776 c -0.782,0 -1.417,-0.633 -1.417,-1.411 v -3.626 c 0,-0.78 0.635,-1.418 1.417,-1.418 h 17.016 c 0.011,-0.894 0.02,-1.696 0.02,-2.447 0,-5.226 -0.225,-9.53 -0.752,-14.389 -0.042,-0.375 0.081,-0.749 0.336,-1.024 0.246,-0.278 0.602,-0.437 0.971,-0.437 h 3.728 c 0.728,0 1.331,0.548 1.404,1.273 0.509,4.89 0.727,9.249 0.727,14.577 0,0.749 -0.007,1.553 -0.018,2.447 H 0 c 0.78,0 1.417,0.638 1.417,1.418 v 3.626 C 1.416,-0.635 0.78,0 0,0 m -54.384,-0.666 c 0,0 -0.375,2.927 -3.237,-0.298 -2.461,-2.721 -6.9,-7.818 -10.473,-14.742 3.749,0.421 7.365,2.455 8.459,3.491 1.778,1.577 5.919,5.857 5.251,11.549 m 1.968,-11.658 c -2.535,-4.425 -9.695,-13.691 -19.21,-11.503 -3.142,-7.619 -5.781,-15.327 -7.291,-26.861 0,0 -0.332,-2.241 -2.194,-1.462 -1.846,0.646 -4.887,3.714 -5.502,7.961 -0.661,5.577 1.821,15.004 6.896,25.816 -1.48,2.406 -2.489,5.844 -1.625,10.738 0,0 1.275,9.09 10.404,17.283 0,0 1.094,0.945 1.729,0.654 0.698,-0.293 0.375,-3.251 -0.18,-4.689 -0.576,-1.43 -4.64,-8.467 -4.64,-8.467 0,0 -2.535,-4.752 -1.822,-8.501 4.788,7.361 15.671,22.205 22.417,17.523 2.267,-1.621 3.311,-5.147 3.311,-8.947 10e-4,-3.338 -0.803,-6.886 -2.293,-9.545 m -59.959,-5.433 c -1.045,-2.458 -3.806,-5.081 -7.235,-3.45 -3.385,1.634 -8.777,12.669 -8.777,12.669 0,0 -2.047,4.115 -2.441,4.01 0,0 -0.442,0.802 -0.713,-3.694 -0.282,-4.477 0.055,-13.209 -1.732,-14.583 -1.692,-1.379 -3.741,-0.83 -4.803,0.781 -0.966,1.586 -1.368,5.354 -0.841,11.973 0.619,6.633 2.16,13.689 4.128,15.886 1.966,2.183 3.544,0.598 4.159,0.023 0,0 2.63,-2.382 6.965,-9.38 l 0.766,-1.295 c 0,0 3.94,-6.612 4.351,-6.596 0,0 0.322,-0.304 0.61,-0.086 0.413,0.118 0.246,2.238 0.246,2.238 0,0 -0.817,7.205 -4.412,19.401 0,0 -0.543,1.52 -0.176,2.946 0.365,1.439 1.808,0.764 1.808,0.764 0,0 5.572,-2.801 8.276,-11.872 2.686,-9.074 0.881,-17.258 -0.179,-19.735 M -81.708,2.114 C -85.65,1.205 -96.017,0.7 -96.017,0.7 l -1.307,-4.095 c 0,0 5.18,0.443 8.949,0.048 0,0 1.222,0.143 1.365,-1.385 0.049,-1.425 -0.121,-2.955 -0.121,-2.955 0,0 -0.078,-0.925 -1.39,-1.161 -1.42,-0.236 -11.166,-0.613 -11.166,-0.613 l -1.578,-5.338 c 0,0 -0.587,-1.233 0.728,-0.882 1.221,0.327 11.433,2.243 12.762,1.968 1.425,-0.354 3.003,-2.255 2.547,-3.986 -0.543,-2.147 -10.735,-8.646 -16.942,-8.193 0,0 -3.261,-0.21 -6.018,4.192 -2.567,4.194 0.973,12.136 0.973,12.136 0,0 -1.623,3.708 -0.447,4.964 0,0 0.7,0.635 2.74,0.779 l 2.498,5.168 c 0,0 -2.845,-0.197 -4.538,1.897 -1.577,1.985 -1.709,2.899 -0.5,3.446 1.293,0.639 13.142,2.801 21.295,2.527 0,0 2.834,0.278 5.292,-4.637 0,0 1.191,-1.988 -0.833,-2.466 M -187.54,-2.703 c 0.185,-1.684 -0.248,-4.866 -0.323,-5.286 -0.137,-0.968 -0.866,-3.199 -0.988,-3.472 -0.588,-1.356 -1.169,-2.468 -1.785,-3.576 -1.054,-1.899 -3.562,-4.907 -5.051,-6.194 -5.535,-4.786 -14.105,-7.509 -21.456,-8.407 -4.989,-0.602 -10.721,-0.514 -16.007,0.464 -1.819,0.331 -4.526,0.955 -4.526,0.955 0,0 0.009,-1.083 -0.078,-1.843 -0.042,-0.348 -0.304,-1.262 -0.45,-1.558 -0.384,-0.794 -1.016,-1.204 -1.933,-1.38 -1.108,-0.206 -2.282,-0.274 -3.305,0.163 -1.681,0.707 -2.284,2.279 -2.577,4.092 -0.236,1.45 -0.484,3.971 -0.484,3.971 0,0 -1.257,0.594 -2.305,1.118 -3.219,1.586 -6.276,3.508 -8.951,5.484 -0.741,0.553 -3.925,3.219 -4.627,3.881 -1.971,1.871 -3.743,3.731 -5.092,6.12 -1.048,1.865 -1.35,3.521 -0.553,5.497 1.1,2.756 5.05,4.83 7.753,6.013 1.985,0.876 8.155,2.89 10.718,3.264 1.21,0.172 3.088,0.509 3.204,0.584 0.047,0.037 0.08,0.067 0.113,0.106 0.06,0.083 0.16,2.811 0.14,3.809 -0.025,0.98 0.726,7.423 0.967,8.785 0.126,0.737 0.684,3.573 1.254,4.318 0.373,0.503 1.031,0.462 1.569,0.132 2.939,-1.828 3.833,-8.168 4.051,-11.394 0.131,-1.964 0.196,-4.921 0.196,-4.921 0,0 3.372,0.1 5.447,0.041 2.015,-0.046 4.238,-0.365 6.33,-0.698 2.679,-0.429 7.9,-1.569 10.894,-3.087 2.466,-1.25 4.774,-3.356 5.522,-5.586 0.695,-2.043 0.591,-3.457 -0.467,-5.301 -1.19,-2.082 -3.441,-3.63 -5.723,-3.759 -0.679,-0.04 -3.235,0.3 -4.021,0.909 -0.309,0.242 -0.293,0.681 -0.07,0.978 0.084,0.104 1.279,0.739 1.984,1.11 0.354,0.192 0.646,0.399 0.922,0.651 0.586,0.516 1.113,1.083 1.054,1.749 -0.08,0.865 -0.995,1.398 -1.867,1.741 -4.089,1.624 -12.253,2.972 -16.198,3.206 -1.545,0.09 -3.741,0.168 -3.741,0.168 l 0.464,-21.787 c 0,0 1.816,-0.345 3.247,-0.578 0.821,-0.124 4.301,-0.437 5.226,-0.46 7.04,-0.186 14.897,0.445 21.358,3.494 2.837,1.334 5.439,2.997 7.409,5.247 2.597,2.976 3.957,7.05 3.597,11.305 -0.395,4.648 -3.666,10.165 -6.278,13.524 -6.9,8.875 -18.73,16.176 -29.138,20.456 -10.625,4.367 -21.126,6.879 -32.402,7.3 -2.907,0.107 -9.246,-0.04 -12.45,-0.926 -0.457,-0.129 -0.919,-0.282 -1.344,-0.378 -0.335,-0.082 -0.864,-0.305 -1.009,-0.422 -0.081,-0.065 -0.16,-0.155 -0.16,-0.155 0,0 0.197,-0.109 0.386,-0.189 0.339,-0.148 1.768,-0.237 2.507,-0.372 0.662,-0.125 1.35,-0.472 1.623,-0.957 0.259,-0.46 0.291,-0.824 -0.018,-1.208 -0.726,-0.883 -3.458,-0.734 -4.662,-0.544 -1.25,0.2 -2.807,0.582 -3.093,1.671 -0.332,1.282 0.278,2.539 0.935,3.701 1.323,2.325 3.216,3.534 5.989,4.291 3.939,1.084 8.913,1.842 12.632,1.984 8.418,0.318 16.386,-1.154 24.542,-3.63 4.668,-1.412 10.78,-3.781 15.254,-5.935 3.211,-1.548 8.269,-4.394 11.111,-6.255 0.896,-0.592 6.14,-4.445 6.955,-5.122 1.699,-1.39 3.923,-3.387 5.532,-4.984 3.114,-3.086 6.988,-7.817 8.87,-11.571 0.452,-0.899 0.803,-1.784 1.387,-2.826 0.201,-0.357 1.061,-2.492 1.203,-3.109 0.142,-0.61 0.349,-1.507 0.379,-1.543 0.041,-0.327 0.44,-2.162 0.408,-2.869 m -58.967,2.493 c 0,0 -3.216,-0.227 -5.43,-0.473 -2.816,-0.303 -8.107,-1.216 -11.161,-2.307 -0.916,-0.328 -2.777,-1.107 -2.939,-2.049 -0.17,-0.977 0.436,-1.74 1.11,-2.53 0.389,-0.458 2.595,-2.58 3.214,-3.096 2.592,-2.165 7.85,-5.503 11.722,-7.124 1.33,-0.55 3.531,-1.338 3.531,-1.338 0,0 -0.164,6.266 -0.135,12.438 0.017,3.255 0.088,6.479 0.088,6.479 m 65.736,8.484 c 0.128,-0.021 0.325,-0.079 0.495,-0.144 1.476,-0.562 2.083,-1.927 2.447,-3.428 0.842,-3.483 1.202,-11.19 1.342,-14.207 0.103,-2.265 0.159,-4.492 0.255,-6.73 0.08,-1.896 0.231,-4.415 -0.164,-6.191 -0.144,-0.638 -0.571,-1.382 -1.183,-1.761 -0.7,-0.45 -2.295,-0.483 -3.172,-0.302 -2.161,0.446 -2.863,1.836 -3.171,3.972 -0.733,5.1 -0.38,15.107 0.052,19.33 0.144,1.395 0.67,5.864 1.398,7.738 0.249,0.632 0.778,1.904 1.701,1.723 m -3.76,6.497 c -0.284,-0.301 -0.585,-1.025 -0.896,-1.549 -0.167,-0.282 -0.475,-0.643 -0.679,-0.787 -0.717,-0.528 -1.324,-0.552 -2.016,0.057 -0.97,0.859 -1.531,2.185 -1.571,3.477 -0.02,0.562 0.076,1.186 -0.031,1.661 -0.176,0.802 -0.979,1.628 -1.411,2.394 -0.508,0.904 -0.919,2.478 -0.97,3.495 -0.174,3.17 1.497,6.09 3.668,8.394 2.186,2.329 5.045,4.265 8.156,5.583 2.94,1.238 7.249,2.082 10.478,0.964 1.051,-0.36 2.515,-1.255 3.251,-2.192 0.156,-0.194 0.284,-0.405 0.444,-0.508 0.144,-0.091 0.519,-0.127 0.818,-0.182 1.03,-0.179 2.513,-0.958 3.118,-1.477 1.217,-1.05 1.883,-2.054 2.192,-3.51 0.619,-2.93 -1.069,-6.144 -2.991,-8.101 -3.29,-3.367 -6.54,-5.734 -10.75,-7.383 -1.849,-0.722 -4.728,-1.397 -6.826,-1.208 -0.652,0.054 -1.321,0.226 -1.955,0.268 -0.324,0.027 -1.508,0.333 -1.634,0.419 -0.157,0.121 -0.36,0.226 -0.395,0.185 m 7.01,5.149 c 2.754,0.19 5.333,0.982 7.734,2.314 2.355,1.318 5.819,3.888 5.46,6.909 -0.109,0.977 -0.749,1.715 -1.557,2.06 -1.051,0.455 -1.598,0.382 -2.94,-0.017 -0.975,-0.285 -1.414,-0.458 -2.334,-0.985 -2.701,-1.569 -6.531,-4.928 -8.611,-7.608 -0.48,-0.633 -0.965,-1.34 -1.346,-1.824 -0.24,-0.299 -0.426,-0.573 -0.403,-0.646 0.083,-0.304 2.922,-0.276 3.997,-0.203 m -9.689,2.593 c 0,0 0.914,1.37 1.68,2.41 1.394,1.894 3.917,4.52 5.817,6.146 0.582,0.496 1.267,1.059 1.267,1.059 0,0 -1.072,-0.111 -1.679,-0.235 -1.442,-0.281 -3.556,-1.685 -4.612,-2.594 -1.743,-1.491 -3.66,-3.917 -2.793,-6.072 0.126,-0.305 0.32,-0.714 0.32,-0.714 m 33.424,-25.053 c 0.158,-0.022 0.192,-0.027 0.345,-0.048 2.56,-0.348 5.075,-0.808 7.001,-1.67 1.784,-0.788 2.83,-1.785 3.785,-3.562 1.453,-2.696 1.547,-6.471 0.235,-9.329 -0.98,-2.126 -3.132,-3.91 -5.097,-4.855 -2.041,-0.989 -4.051,-1.46 -6.356,-1.723 -4.033,-0.444 -8.387,0.391 -12.016,2.147 -2.147,1.048 -4.768,2.852 -6.09,5.179 -0.973,1.704 -0.941,3.921 0.241,5.54 1.886,2.581 5.925,3.149 8.967,3.041 2.319,-0.09 6.495,-0.807 8.697,-1.59 0.61,-0.221 2.861,-1.098 3.254,-1.5 0.277,-0.279 0.456,-0.686 0.332,-1.062 -0.503,-1.539 -4.243,-2.349 -5.323,-2.512 -2.891,-0.444 -4.39,0.651 -7.677,1.948 -0.816,0.319 -1.903,0.674 -2.734,0.751 -1.491,0.142 -3.294,-0.276 -3.578,-1.904 -0.142,-0.84 0.842,-1.625 1.593,-1.956 1.763,-0.756 3.196,-1.029 4.931,-1.052 5.126,-0.084 10.886,0.759 15.078,3.73 0.574,0.409 1.138,1.009 1.144,1.765 0.018,1.526 -2.657,2.459 -2.657,2.459 -2.825,1.178 -8.042,1.751 -10.73,1.972 -2.822,0.244 -7.26,0.609 -8.326,0.766 -1.097,0.156 -2.289,0.378 -3.239,0.804 -0.954,0.431 -1.888,1.396 -2.165,2.464 -0.492,1.925 0.135,4.286 1.204,5.824 2.801,4.026 9.363,5.557 14.265,6.164 4.745,0.59 12.415,0.584 17.076,-1.893 0.719,-0.385 1.086,-0.744 0.936,-1.513 -0.304,-1.444 -1.389,-2.374 -2.704,-2.782 -1.38,-0.439 -4.235,-0.611 -5.489,-0.69 -5.618,-0.314 -12.408,-0.149 -17.759,-1.608 -0.42,-0.12 -1.144,-0.316 -1.379,-0.578 -0.838,-0.91 1.555,-1.169 2.067,-1.274 0.153,-0.036 0.182,-0.041 0.341,-0.059 l 11.827,-1.394" /></g></g></g><g
       id="g24"><g
         id="g26"><g
           id="g32"><g
             id="g34"><path
               id="path48"
               style="fill:url(#linearGradient46);stroke:none"
               d="m 252.925,199.073 c -0.246,-0.367 -0.307,-0.818 -0.165,-1.241 v 0 c 0.149,-0.423 0.47,-0.745 0.886,-0.89 v 0 l 3.127,-1.052 c 0.189,-0.059 0.377,-0.09 0.56,-0.09 v 0 c 0.58,0 1.124,0.287 1.446,0.768 v 0 c 10.238,15.043 24.096,27.567 40.077,36.219 v 0 c 16.498,8.933 35.189,13.659 54.06,13.659 v 0 c 22.793,0 44.785,-6.724 63.6,-19.443 v 0 c 18.359,-12.405 32.616,-29.714 41.232,-50.055 v 0 c 0.257,-0.608 0.852,-1.002 1.511,-1.002 v 0 h 3.733 c 0.431,0 0.835,0.217 1.079,0.577 v 0 c 0.243,0.359 0.289,0.814 0.127,1.218 v 0 c -8.884,21.87 -23.907,40.514 -43.452,53.909 v 0 c -20.008,13.713 -43.462,20.962 -67.83,20.962 v 0 c -40.284,0 -77.665,-20.015 -99.991,-53.539" /></g></g></g></g></g></svg>